<?xml version="1.0" standalone="no"?>
<!DOCTYPE svg PUBLIC "-//W3C//DTD SVG 20010904//EN"
 "http://www.w3.org/TR/2001/REC-SVG-20010904/DTD/svg10.dtd">
<svg version="1.0" xmlns="http://www.w3.org/2000/svg"
 width="164.000000pt" height="164.000000pt" viewBox="0 0 164.000000 164.000000"
 preserveAspectRatio="xMidYMid meet">

<g transform="translate(0.000000,164.000000) scale(0.100000,-0.100000)"
fill="#000000" stroke="none">
<path d="M431 1564 c-154 -41 -285 -163 -343 -320 -21 -55 -22 -79 -26 -388
-2 -218 0 -352 8 -395 37 -215 212 -384 427 -412 50 -7 200 -9 385 -7 274 4
309 6 365 25 158 52 278 179 327 342 23 78 24 717 1 806 -45 170 -182 303
-361 350 -82 21 -703 21 -783 -1z m516 -149 c27 -8 57 -23 66 -33 15 -17 9
-25 -106 -140 -117 -117 -124 -122 -140 -105 -89 99 -36 252 97 284 17 4 31 7
32 8 0 1 23 -6 51 -14z m250 -217 c107 -110 153 -208 153 -328 0 -325 -342
-534 -630 -386 l-65 34 -112 -111 -113 -112 -75 75 -75 75 412 412 c227 227
418 413 423 413 6 0 42 -33 82 -72z m-587 -150 c14 -5 33 -17 43 -26 17 -15
11 -22 -100 -134 -65 -65 -123 -118 -130 -118 -35 0 -69 101 -53 160 29 109
130 158 240 118z"/>
<path d="M966 811 c-95 -96 -98 -99 -76 -111 56 -30 129 -2 181 71 25 36 29
103 8 125 -13 12 -28 0 -113 -85z"/>
</g>
</svg>
